<?xml version="1.0" encoding="utf-8"?>
<!-- Generator: Adobe Illustrator 27.0.0, SVG Export Plug-In . SVG Version: 6.00 Build 0)  -->
<svg version="1.1" id="Layer_1" xmlns="http://www.w3.org/2000/svg" xmlns:xlink="http://www.w3.org/1999/xlink" x="0px" y="0px"
	 viewBox="0 0 800 800" style="enable-background:new 0 0 800 800;" xml:space="preserve">
<style type="text/css">
	.st0{fill:none;stroke:#FFF9EF;stroke-width:66.6667;stroke-linecap:round;stroke-miterlimit:133.3333;}
</style>
<path class="st0" d="M100,300h600 M233.3,100v66.7 M566.7,100v66.7 M200,400h66.7 M366.7,400h66.7 M533.3,400H600 M200,500h66.7
	 M366.7,500h66.7 M533.3,500H600 M200,600h66.7 M366.7,600h66.7 M533.3,600H600 M206.7,700h386.7c37.3,0,56,0,70.3-7.3
	c12.5-6.4,22.7-16.6,29.1-29.1c7.3-14.3,7.3-32.9,7.3-70.3v-320c0-37.3,0-56-7.3-70.3c-6.4-12.5-16.6-22.7-29.1-29.1
	c-14.3-7.3-32.9-7.3-70.3-7.3H206.7c-37.3,0-56,0-70.3,7.3c-12.5,6.4-22.7,16.6-29.1,29.1c-7.3,14.3-7.3,32.9-7.3,70.3v320
	c0,37.3,0,56,7.3,70.3c6.4,12.5,16.6,22.7,29.1,29.1C150.7,700,169.3,700,206.7,700z"/>
</svg>
