<?xml version="1.0" encoding="UTF-8"?>
<svg id="Layer_1" data-name="Layer 1" xmlns="http://www.w3.org/2000/svg" viewBox="0 0 480 352">
  <defs>
    <style>
      .cls-1 {
        fill: #fbb040;
      }

      .cls-2 {
        fill: #9b1c22;
      }

      .cls-3 {
        fill: #cd202a;
      }
    </style>
  </defs>
  <path class="cls-1" d="M27.31,45.16l1.49,11.98c.09,.7,.94,.99,1.44,.5l8.6-8.47c.2-.2,.48-.28,.76-.23l11.85,2.29c.69,.13,1.23-.58,.92-1.21l-5.4-10.8c-.12-.25-.12-.54,.02-.79l5.84-10.57c.34-.62-.17-1.35-.87-1.25l-11.94,1.8c-.28,.04-.55-.06-.75-.26l-8.25-8.82c-.48-.51-1.34-.25-1.46,.44l-1.98,11.91c-.05,.28-.22,.51-.48,.63l-10.93,5.12c-.64,.3-.65,1.2-.03,1.52l10.71,5.56c.25,.13,.42,.37,.45,.65Z"/>
  <path class="cls-1" d="M452.86,45.16l-1.49,11.98c-.09,.7-.94,.99-1.44,.5l-8.6-8.47c-.2-.2-.48-.28-.76-.23l-11.85,2.29c-.69,.13-1.23-.58-.92-1.21l5.4-10.8c.12-.25,.12-.54-.02-.79l-5.84-10.57c-.34-.62,.17-1.35,.87-1.25l11.94,1.8c.28,.04,.55-.06,.75-.26l8.25-8.82c.48-.51,1.34-.25,1.46,.44l1.98,11.91c.05,.28,.22,.51,.48,.63l10.93,5.12c.64,.3,.65,1.2,.03,1.52l-10.71,5.56c-.25,.13-.42,.37-.45,.65Z"/>
  <g>
    <rect class="cls-3" x="-19.05" y="307.13" width="518.11" height="44.87"/>
    <polygon class="cls-2" points="6.85 307.13 -19.05 352 32.76 352 6.85 307.13"/>
    <polygon class="cls-2" points="58.66 307.13 32.76 352 84.57 352 58.66 307.13"/>
    <polygon class="cls-2" points="110.47 307.13 84.57 352 136.38 352 110.47 307.13"/>
    <polygon class="cls-2" points="162.28 307.13 136.38 352 188.19 352 162.28 307.13"/>
    <polygon class="cls-2" points="214.09 307.13 188.19 352 240 352 214.09 307.13"/>
    <polygon class="cls-2" points="265.91 307.13 240 352 291.81 352 265.91 307.13"/>
    <polygon class="cls-2" points="317.72 307.13 291.81 352 343.62 352 317.72 307.13"/>
    <polygon class="cls-2" points="369.53 307.13 343.62 352 395.43 352 369.53 307.13"/>
    <polygon class="cls-2" points="421.34 307.13 395.43 352 447.24 352 421.34 307.13"/>
    <polygon class="cls-2" points="473.15 307.13 447.24 352 499.05 352 473.15 307.13"/>
  </g>
</svg>