<?xml version="1.0" encoding="UTF-8"?>
<svg id="Layer_1" data-name="Layer 1" xmlns="http://www.w3.org/2000/svg" viewBox="0 0 480 480">
  <defs>
    <style>
      .cls-1 {
        fill: #fbb040;
      }
    </style>
  </defs>
  <path class="cls-1" d="M385.39,296.6l85.35-79.82c17.54-16.4,8.65-45.8-15.03-49.74l-115.27-19.19c-9.41-1.57-17.44-7.66-21.48-16.3l-49.54-105.84c-10.18-21.75-40.88-22.38-51.95-1.07l-53.87,103.7c-4.4,8.46-12.67,14.22-22.14,15.4l-115.97,14.41c-23.83,2.96-33.92,31.96-17.07,49.08l81.98,83.28c6.69,6.8,9.61,16.45,7.8,25.81l-22.13,114.75c-4.55,23.58,19.92,42.14,41.4,31.4l104.54-52.23c8.53-4.26,18.61-4.05,26.96,.56l102.29,56.5c21.02,11.61,46.23-5.92,42.66-29.67l-17.37-115.56c-1.42-9.43,1.9-18.95,8.86-25.47Z"/>
</svg>