<?xml version="1.0" encoding="UTF-8"?>
<svg id="Layer_1" data-name="Layer 1" xmlns="http://www.w3.org/2000/svg" viewBox="0 0 1200 282.65">
  <defs>
    <style>
      .cls-1 {
        fill: #7c1822;
      }

      .cls-2 {
        fill: #9b1c22;
      }

      .cls-3 {
        fill: #cd202a;
      }
    </style>
  </defs>
  <path class="cls-1" d="M1200,0V281.86c-19.45-2.56-37.52-11.3-53.06-24.71-18.69,16.12-41.03,25.5-65.03,25.5-34.12,0-64.88-18.95-86.59-49.32-21.71,30.37-52.48,49.32-86.6,49.32-26.38,0-50.77-11.34-70.51-30.53-19.74,19.19-44.13,30.53-70.51,30.53-34.11,0-64.88-18.95-86.59-49.31-21.71,30.36-52.48,49.31-86.59,49.31-23.99,0-46.33-9.38-65.03-25.5-18.7,16.12-41.04,25.5-65.03,25.5-34.12,0-64.88-18.95-86.59-49.32-21.71,30.37-52.47,49.32-86.59,49.32-24,0-46.34-9.38-65.03-25.5-18.7,16.12-41.04,25.5-65.03,25.5-34.12,0-64.88-18.95-86.59-49.32-19.14,26.77-45.32,44.67-74.63,48.53V0H59.96c5.25,5.26,10.16,11.08,14.67,17.4,4.51-6.32,9.42-12.14,14.67-17.4H363.2c5.25,5.26,10.16,11.08,14.67,17.4,4.51-6.32,9.42-12.14,14.67-17.4h273.91c5.25,5.26,10.15,11.08,14.66,17.39,4.51-6.31,9.41-12.13,14.66-17.39h284.87c5.25,5.26,10.16,11.08,14.68,17.4,4.52-6.31,9.42-12.14,14.67-17.4h190.01Z"/>
  <path class="cls-2" d="M1200,0V267.38c-19.45-2.56-37.52-11.3-53.06-24.71-18.69,16.12-41.03,25.5-65.03,25.5-34.12,0-64.88-18.95-86.59-49.32-21.71,30.37-52.48,49.32-86.6,49.32-26.38,0-50.77-11.34-70.51-30.53-19.74,19.19-44.13,30.53-70.51,30.53-34.11,0-64.88-18.95-86.59-49.31-21.71,30.36-52.48,49.31-86.59,49.31-23.99,0-46.33-9.38-65.03-25.5-18.7,16.12-41.04,25.5-65.03,25.5-34.12,0-64.88-18.95-86.59-49.32-21.71,30.37-52.47,49.32-86.59,49.32-24,0-46.34-9.38-65.03-25.5-18.7,16.12-41.04,25.5-65.03,25.5-34.12,0-64.88-18.95-86.59-49.32-19.14,26.77-45.32,44.67-74.63,48.53V0H72.49c.72,.96,1.43,1.93,2.14,2.92,.71-.99,1.42-1.96,2.14-2.92H375.73c.72,.96,1.43,1.93,2.14,2.92,.71-.99,1.42-1.96,2.14-2.92h298.96c.73,.96,1.44,1.93,2.14,2.91,.7-.98,1.41-1.95,2.14-2.91h309.93c.72,.96,1.43,1.93,2.14,2.92,.71-.99,1.42-1.96,2.14-2.92h202.54Z"/>
  <path class="cls-3" d="M1200,0V248.06c-19.45-2.56-37.52-11.3-53.06-24.71-18.69,16.12-41.03,25.5-65.03,25.5-34.12,0-64.88-18.95-86.59-49.32-21.71,30.37-52.48,49.32-86.6,49.32-26.38,0-50.77-11.34-70.51-30.53-19.74,19.19-44.13,30.53-70.51,30.53-34.11,0-64.88-18.95-86.59-49.31-21.71,30.36-52.48,49.31-86.59,49.31-23.99,0-46.33-9.38-65.03-25.5-18.7,16.12-41.04,25.5-65.03,25.5-34.12,0-64.88-18.95-86.59-49.32-21.71,30.37-52.47,49.32-86.59,49.32-24,0-46.34-9.38-65.03-25.5-18.7,16.12-41.04,25.5-65.03,25.5-34.12,0-64.88-18.95-86.59-49.32C55.49,226.3,29.31,244.2,0,248.06V0H1200Z"/>
</svg>