<?xml version="1.0" encoding="UTF-8"?>
<svg id="Layer_1" data-name="Layer 1" xmlns="http://www.w3.org/2000/svg" viewBox="0 0 300 259.3">
  <defs>
    <style>
      .cls-1 {
        fill: #0e1210;
      }
    </style>
  </defs>
  <path class="cls-1" d="M256.15,72.95h0s-14.68,32.88-14.68,32.88l-1.4,3.13c-.38-.28-.76-.57-1.15-.85-19.98-14.48-52.27-24.15-88.81-24.15s-69.12,9.7-89.24,24.22c-1.14,.82-2.24,1.66-3.3,2.51l-3.79-9.6h0s-10.24-25.94-10.24-25.94c0-.27,0-.53,0-.8,0-6.48,1.62-12.68,4.64-18.46C61.36,30.7,101.26,13.28,150.77,13.28s88.2,17.42,100.93,42.6c2.71,5.37,4.24,11.08,4.45,17.06Z"/>
  <path class="cls-1" d="M289.45,179.19c0,26.96-28.92,51.64-71.68,64.66-2.52,.77-5.1,1.5-7.72,2.18,3.71-3.28,6.99-6.86,9.79-10.69,6.78-9.28,10.67-20,10.67-31.42,0-3.05-.28-6.06-.82-8.99l4.12-16.87,6.21-25.49c1.35-5.54-3.87-10.5-9.66-9.18l-6.3,1.44-29.15,6.64c-13.03-6.96-28.74-11.03-45.51-11.03s-32.11,4.02-44.92,10.9l-33.93-7.73-.95-.22c-5.79-1.32-11.01,3.64-9.66,9.18l6.22,25.51,3.96,16.24c-.61,3.16-.93,6.4-.93,9.69,0,11.84,4.08,22.93,11.19,32.42,2.48,3.31,5.34,6.44,8.51,9.33-2.27-.61-4.51-1.24-6.7-1.91-42.75-13.01-71.66-37.69-71.66-64.65,0-16.42,11.04-30.72,29.44-41.84,6.92-4.18,14.89-7.92,23.71-11.14,5.52-2.02,11.38-3.84,17.52-5.45,20.88-5.47,45.04-8.48,70.62-8.48s47.85,2.83,67.76,7.98h0c4.73,1.22,9.28,2.58,13.63,4.06,9.87,3.35,18.71,7.35,26.3,11.91,18.79,11.28,29.92,25.99,29.92,42.98Z"/>
</svg>