<?xml version="1.0" encoding="utf-8"?>
<!-- Generator: Adobe Illustrator 27.0.0, SVG Export Plug-In . SVG Version: 6.00 Build 0)  -->
<svg version="1.1" id="Layer_1" xmlns="http://www.w3.org/2000/svg" xmlns:xlink="http://www.w3.org/1999/xlink" x="0px" y="0px"
	 viewBox="0 0 800 800" style="enable-background:new 0 0 800 800;" xml:space="preserve">
<style type="text/css">
	.st0{fill:none;stroke:#FFF9EF;stroke-width:66.6667;stroke-linecap:round;stroke-linejoin:round;stroke-miterlimit:133.3333;}
</style>
<path class="st0" d="M100,100l600,600 M328.1,330.5C310.7,348.5,300,373,300,400c0,55.2,44.8,100,100,100c27.4,0,52.3-11,70.3-28.9
	 M216.6,221.6C153.3,263.3,105.1,326.1,81.9,400C124.4,535.2,250.7,633.3,400,633.3c66.3,0,128.1-19.4,180-52.7 M366.6,168.3
	c11-1.1,22.1-1.6,33.3-1.6c149.3,0,275.6,98.1,318.1,233.3c-9.4,29.8-22.8,57.8-39.6,83.3"/>
</svg>
