<?xml version="1.0" encoding="utf-8"?>
<!-- Generator: Adobe Illustrator 27.0.0, SVG Export Plug-In . SVG Version: 6.00 Build 0)  -->
<svg version="1.1" id="Layer_1" xmlns="http://www.w3.org/2000/svg" xmlns:xlink="http://www.w3.org/1999/xlink" x="0px" y="0px"
	 viewBox="0 0 800 800" style="enable-background:new 0 0 800 800;" xml:space="preserve">
<style type="text/css">
	.st0{fill:#FFF9EF;}
</style>
<path class="st0" d="M447.1,400l165-165c12.8-13.2,12.4-34.3-0.8-47.1c-12.9-12.5-33.4-12.5-46.3,0l-165,165l-165-165
	c-13.2-12.8-34.3-12.4-47.1,0.8c-12.5,12.9-12.5,33.4,0,46.3l165,165l-165,165c-12.8,13.2-12.4,34.3,0.8,47.1
	c12.9,12.5,33.4,12.5,46.3,0l165-165l165,165c13.2,12.8,34.3,12.4,47.1-0.8c12.5-12.9,12.5-33.4,0-46.3L447.1,400z"/>
</svg>
