<?xml version="1.0" encoding="utf-8"?>
<!-- Generator: Adobe Illustrator 27.0.0, SVG Export Plug-In . SVG Version: 6.00 Build 0)  -->
<svg version="1.1" id="Layer_1" xmlns="http://www.w3.org/2000/svg" xmlns:xlink="http://www.w3.org/1999/xlink" x="0px" y="0px"
	 viewBox="0 0 800 800" style="enable-background:new 0 0 800 800;" xml:space="preserve">
<style type="text/css">
	.st0{fill:#FFF9EF;}
</style>
<path class="st0" d="M666.7,200H561.5c-0.6-1.4-1.3-2.8-2.1-4.2L502.7,125c-12.6-15.9-31.8-25.1-52.1-25H349.4
	c-20.3-0.1-39.4,9.1-52.1,25l-56.7,70.8c-0.8,1.3-1.5,2.7-2.1,4.2H133.3c-18.4,0-33.3,14.9-33.3,33.3s14.9,33.3,33.3,33.3h33.3
	v366.7c0,36.7,29.7,66.6,66.5,66.7h333.7c36.8-0.1,66.5-29.9,66.5-66.7V266.7h33.3c18.4,0,33.3-14.9,33.3-33.3S685.1,200,666.7,200z
	 M349.4,166.7h101.3l26.7,33.3H322.7L349.4,166.7z M566.8,633.3H233.3V266.7h333.3L566.8,633.3z"/>
<path class="st0" d="M466.7,600c-18.4,0-33.3-14.9-33.3-33.3V333.3c0-18.4,14.9-33.3,33.3-33.3c18.4,0,33.3,14.9,33.3,33.3v233.3
	C500,585.1,485.1,600,466.7,600z M333.3,600c-18.4,0-33.3-14.9-33.3-33.3V333.3c0-18.4,14.9-33.3,33.3-33.3
	c18.4,0,33.3,14.9,33.3,33.3v233.3C366.7,585.1,351.7,600,333.3,600z"/>
</svg>
