<?xml version="1.0" encoding="UTF-8"?>
<svg id="Layer_1" data-name="Layer 1" xmlns="http://www.w3.org/2000/svg" viewBox="0 0 50 50">
  <defs>
    <style>
      .cls-1 {
        fill: #fff9ef;
      }
    </style>
  </defs>
  <path class="cls-1" d="M39.04,49.35H11.79c-.68,0-1.24-.59-1.27-1.35l-1.56-32.63c-.04-.81,.54-1.5,1.27-1.5h30.36c.73,0,1.31,.68,1.27,1.5l-1.56,32.63c-.04,.75-.6,1.35-1.27,1.35Z"/>
  <path class="cls-1" d="M42.51,5.52h-9.08V3.24c0-.66-.47-1.2-1.08-1.2h-13.89c-.59,0-1.08,.54-1.08,1.2v2.28H8.32c-.59,0-1.08,.53-1.08,1.2v1.73c0,.66,.48,1.2,1.08,1.2H42.51c.6,0,1.08-.54,1.08-1.2v-1.73c0-.67-.47-1.2-1.08-1.2Zm-22.12,.24v-1.13c0-.66,.48-1.2,1.08-1.2h7.89c.59,0,1.08,.54,1.08,1.2v1.13h-10.05Z"/>
</svg>