<?xml version="1.0" encoding="UTF-8"?>
<svg xmlns="http://www.w3.org/2000/svg" xmlns:xlink="http://www.w3.org/1999/xlink" viewBox="0 0 255.45 247.18">
  <defs>
    <style>
      .cls-1, .cls-2 {
        fill: #fff9ef;
      }

      .cls-3 {
        mix-blend-mode: multiply;
        opacity: .57;
      }

      .cls-3, .cls-4 {
        fill: #9b1c22;
      }

      .cls-5 {
        isolation: isolate;
      }

      .cls-2 {
        filter: url(#drop-shadow-1);
      }

      .cls-6 {
        fill: #fbb040;
      }

      .cls-7 {
        fill: #cd202a;
      }
    </style>
    <filter id="drop-shadow-1" filterUnits="userSpaceOnUse">
      <feOffset dx="0" dy="0"/>
      <feGaussianBlur result="blur" stdDeviation="6"/>
      <feFlood flood-color="#231f20" flood-opacity=".39"/>
      <feComposite in2="blur" operator="in"/>
      <feComposite in="SourceGraphic"/>
    </filter>
  </defs>
  <g class="cls-5">
    <g id="Layer_2" data-name="Layer 2">
      <g id="Layer_2-2" data-name="Layer 2">
        <g id="Luz_y_estrellas" data-name="Luz y estrellas">
          <polygon class="cls-6" points="0 0 57.94 221.1 235.21 220.96 0 0"/>
          <path class="cls-1" d="M71.23,132.38l7.9,.7c.46,.04,.67,.59,.36,.93l-5.36,5.85c-.12,.14-.17,.32-.13,.5l1.78,7.73c.1,.45-.35,.82-.77,.63l-7.22-3.29c-.17-.08-.36-.07-.52,.03l-6.8,4.08c-.4,.24-.89-.08-.84-.54l.9-7.88c.02-.18-.05-.36-.19-.48l-5.98-5.21c-.35-.3-.2-.87,.25-.97l7.77-1.58c.18-.04,.33-.16,.4-.33l3.1-7.3c.18-.42,.77-.46,1-.06l3.91,6.91c.09,.16,.25,.26,.44,.28Z"/>
          <path class="cls-4" d="M115.22,64.9l-2.32-7.59c-.14-.44,.29-.85,.73-.68l7.43,2.77c.17,.06,.36,.04,.51-.07l6.5-4.55c.38-.26,.9,.02,.88,.48l-.34,7.93c0,.18,.07,.36,.22,.47l6.34,4.77c.37,.28,.26,.86-.19,.98l-7.64,2.13c-.18,.05-.32,.18-.38,.36l-2.58,7.5c-.15,.44-.74,.51-.99,.13l-4.38-6.61c-.1-.15-.27-.25-.45-.25l-7.93-.14c-.46,0-.71-.54-.43-.9l4.93-6.21c.11-.14,.15-.33,.1-.51Z"/>
          <path class="cls-1" d="M76.04,98.04l4.22-1.14c.25-.07,.46,.18,.36,.41l-1.66,4.04c-.04,.09-.03,.2,.03,.28l2.39,3.66c.14,.21-.03,.49-.28,.47l-4.36-.33c-.1,0-.2,.03-.26,.11l-2.74,3.4c-.16,.2-.48,.13-.54-.12l-1.03-4.24c-.02-.1-.09-.18-.19-.21l-4.08-1.55c-.24-.09-.27-.41-.05-.55l3.72-2.29c.09-.05,.14-.14,.15-.25l.22-4.36c.01-.25,.31-.38,.5-.22l3.33,2.83c.08,.07,.18,.09,.28,.06Z"/>
          <path class="cls-7" d="M108.14,45.47l3.18,2.99c.19,.17,.09,.48-.16,.53l-4.31,.71c-.1,.02-.18,.08-.23,.17l-1.86,3.95c-.11,.23-.43,.24-.55,.01l-2.01-3.88c-.05-.09-.13-.15-.23-.16l-4.33-.55c-.25-.03-.36-.34-.18-.52l3.07-3.11c.07-.07,.1-.17,.08-.27l-.82-4.29c-.05-.25,.21-.45,.44-.33l3.9,1.96c.09,.05,.2,.04,.29,0l3.83-2.1c.22-.12,.49,.06,.45,.31l-.66,4.32c-.02,.1,.02,.2,.09,.27Z"/>
          <path class="cls-4" d="M27.39,156.48l3.18,2.99c.19,.17,.09,.48-.16,.53l-4.31,.71c-.1,.02-.18,.08-.23,.17l-1.86,3.95c-.11,.23-.43,.24-.55,.01l-2.01-3.88c-.05-.09-.13-.15-.23-.16l-4.33-.55c-.25-.03-.36-.34-.18-.52l3.07-3.11c.07-.07,.1-.17,.08-.27l-.82-4.29c-.05-.25,.21-.45,.44-.33l3.9,1.96c.09,.05,.2,.04,.29,0l3.83-2.1c.22-.12,.49,.06,.45,.31l-.66,4.32c-.02,.1,.02,.2,.09,.27Z"/>
          <path class="cls-1" d="M99.22,162.63l3.14,3.04c.18,.18,.08,.49-.17,.52l-4.32,.65c-.1,.01-.19,.08-.23,.17l-1.92,3.92c-.11,.23-.44,.23-.55,0l-1.95-3.91c-.05-.09-.13-.15-.23-.17l-4.32-.61c-.25-.04-.35-.34-.17-.52l3.12-3.06c.07-.07,.1-.17,.09-.27l-.76-4.3c-.04-.25,.22-.44,.44-.33l3.87,2.02c.09,.05,.2,.05,.29,0l3.86-2.05c.22-.12,.49,.07,.45,.32l-.72,4.31c-.02,.1,.02,.2,.09,.27Z"/>
        </g>
        <g id="Cortina">
          <path id="Cortina-2" data-name="Cortina" class="cls-7" d="M164.75,1.37h68.56V216.71S133.32,133.99,164.75,1.37Z"/>
          <g id="Sombras">
            <path class="cls-4" d="M229.78,212.53s-36.89-38.52-43.22-95.04l43.22,95.04Z"/>
            <path class="cls-4" d="M229.78,207.28s-33.86-67.65-18.76-146.89l18.76,146.89Z"/>
          </g>
        </g>
        <g id="Ecenario">
          <g id="Triangulos_rojo_claro" data-name="Triangulos rojo claro">
            <path class="cls-7" d="M127.46,197.66l-23.06,47.07c-1.7-.18-3.36-.37-4.98-.57l-21.97-55.46c7.32,4.14,26.02,7.47,50.01,8.96Z"/>
            <path class="cls-7" d="M76.94,188.39l-4.94,8.55,2.09-12.14c0,1.25,.99,2.45,2.85,3.59Z"/>
            <path class="cls-7" d="M182.33,197.76l-25.08,49.41c-.5,.01-1,.01-1.5,.01-.45,0-.9,0-1.35-.01l-23.05-49.3c7.7,.41,15.9,.63,24.4,.63,9.31,0,18.25-.26,26.58-.74Z"/>
            <path class="cls-7" d="M237.93,187.83l-26.84,56.45c-.81,.1-1.64,.19-2.48,.28l-22.26-47.06c29.94-2.03,51.06-6.95,51.06-12.7l.52,3.03Z"/>
          </g>
          <path id="Circulo_blanco" data-name="Circulo blanco" class="cls-2" d="M237.41,184.8c0,5.75-21.12,10.67-51.06,12.7-1.32,.09-2.66,.18-4.02,.26-8.33,.48-17.27,.74-26.58,.74-8.5,0-16.7-.22-24.4-.63-1.31-.06-2.61-.14-3.89-.21-23.99-1.49-42.69-4.82-50.01-8.96-.18-.1-.35-.2-.51-.31-1.86-1.14-2.85-2.34-2.85-3.59,0-7.56,36.56-13.7,81.66-13.7s81.66,6.14,81.66,13.7Z"/>
          <g id="Triangulo_rojo_oscuro" data-name="Triangulo rojo oscuro">
            <path class="cls-4" d="M99.42,244.16c-20.54-2.51-33.69-6.36-33.69-10.68l.12-.73,6.15-35.81,4.94-8.55c.16,.11,.33,.21,.51,.31l21.97,55.46Z"/>
            <path class="cls-4" d="M154.4,247.17c-18.57-.03-35.78-.93-50-2.44l23.06-47.07c1.28,.07,2.58,.15,3.89,.21l23.05,49.3Z"/>
            <path class="cls-4" d="M208.61,244.56c-14.47,1.61-32.18,2.57-51.36,2.61l25.08-49.41c1.36-.08,2.7-.17,4.02-.26l22.26,47.06Z"/>
            <path class="cls-4" d="M245.77,233.48c0,4.39-13.57,8.3-34.68,10.8l26.84-56.45,7.72,44.92,.12,.73Z"/>
          </g>
        </g>
        <g id="Pelota">
          <path class="cls-4" d="M81.89,195.28c9.52,16.5,3.87,37.6-12.64,47.13-6.75,3.89-14.28,5.25-21.46,4.36-10.37-1.29-20.04-7.26-25.66-17-9.53-16.51-3.86-37.6,12.64-47.13,12.39-7.15,27.34-5.74,38.07,2.36h0c3.58,2.7,6.68,6.15,9.05,10.28Z"/>
          <path class="cls-3" d="M81.89,195.28c9.52,16.5,3.87,37.6-12.64,47.13-6.75,3.89-14.28,5.25-21.46,4.36,28.61-22.53,28.72-45.68,25.05-61.76,3.58,2.69,6.68,6.15,9.05,10.27Z"/>
        </g>
      </g>
    </g>
  </g>
</svg>