<?xml version="1.0" encoding="UTF-8"?>
<svg id="Layer_1" data-name="Layer 1" xmlns="http://www.w3.org/2000/svg" viewBox="0 0 1200 259">
  <defs>
    <style>
      .cls-1 {
        fill: #0e1210;
      }

      .cls-2 {
        fill: #9b1c22;
      }

      .cls-3 {
        fill: #cd202a;
      }
    </style>
  </defs>
  <g>
    <g>
      <path class="cls-3" d="M26.24,205.74H-119.51c-22.06,0-38.98-19.58-35.79-41.4l16.73-114.4c2.6-17.77,17.83-30.94,35.79-30.94H9.9c18,0,33.26,13.24,35.81,31.05l16.34,114.4c3.11,21.79-13.8,41.28-35.81,41.28Z"/>
      <path class="cls-3" d="M223.8,205.74H78.05c-22.06,0-38.98-19.58-35.79-41.4L58.99,49.94c2.6-17.77,17.83-30.94,35.79-30.94h112.67c18,0,33.26,13.24,35.81,31.05l16.34,114.4c3.11,21.79-13.8,41.28-35.81,41.28Z"/>
      <path class="cls-3" d="M421.35,205.74h-145.75c-22.06,0-38.98-19.58-35.79-41.4l16.73-114.4c2.6-17.77,17.83-30.94,35.79-30.94h112.67c18,0,33.26,13.24,35.81,31.05l16.34,114.4c3.11,21.79-13.8,41.28-35.81,41.28Z"/>
      <path class="cls-3" d="M618.91,205.74h-145.75c-22.06,0-38.98-19.58-35.79-41.4l16.73-114.4c2.6-17.77,17.83-30.94,35.79-30.94h112.67c18,0,33.26,13.24,35.81,31.05l16.34,114.4c3.11,21.79-13.8,41.28-35.81,41.28Z"/>
    </g>
    <g>
      <path class="cls-3" d="M817.62,205.74h-145.75c-22.06,0-38.98-19.58-35.79-41.4l16.73-114.4c2.6-17.77,17.83-30.94,35.79-30.94h112.67c18,0,33.26,13.24,35.81,31.05l16.34,114.4c3.11,21.79-13.8,41.28-35.81,41.28Z"/>
      <path class="cls-3" d="M1015.18,205.74h-145.75c-22.06,0-38.98-19.58-35.79-41.4l16.73-114.4c2.6-17.77,17.83-30.94,35.79-30.94h112.67c18,0,33.26,13.24,35.81,31.05l16.34,114.4c3.11,21.79-13.8,41.28-35.81,41.28Z"/>
      <path class="cls-3" d="M1212.74,205.74h-145.75c-22.06,0-38.98-19.58-35.79-41.4l16.73-114.4c2.6-17.77,17.83-30.94,35.79-30.94h112.67c18,0,33.26,13.24,35.81,31.05l16.34,114.4c3.11,21.79-13.8,41.28-35.81,41.28Z"/>
    </g>
  </g>
  <g>
    <g>
      <path class="cls-2" d="M28.23,227.98H-117.52c-22.06,0-38.98-19.58-35.79-41.4l16.73-114.4c2.6-17.77,17.83-30.94,35.79-30.94H11.89c18,0,33.26,13.24,35.81,31.05l16.34,114.4c3.11,21.79-13.8,41.28-35.81,41.28Z"/>
      <path class="cls-2" d="M225.79,227.98H80.04c-22.06,0-38.98-19.58-35.79-41.4l16.73-114.4c2.6-17.77,17.83-30.94,35.79-30.94h112.67c18,0,33.26,13.24,35.81,31.05l16.34,114.4c3.11,21.79-13.8,41.28-35.81,41.28Z"/>
      <path class="cls-2" d="M423.34,227.98h-145.75c-22.06,0-38.98-19.58-35.79-41.4l16.73-114.4c2.6-17.77,17.83-30.94,35.79-30.94h112.67c18,0,33.26,13.24,35.81,31.05l16.34,114.4c3.11,21.79-13.8,41.28-35.81,41.28Z"/>
      <path class="cls-2" d="M620.9,227.98h-145.75c-22.06,0-38.98-19.58-35.79-41.4l16.73-114.4c2.6-17.77,17.83-30.94,35.79-30.94h112.67c18,0,33.26,13.24,35.81,31.05l16.34,114.4c3.11,21.79-13.8,41.28-35.81,41.28Z"/>
    </g>
    <g>
      <path class="cls-2" d="M815.63,227.98h-145.75c-22.06,0-38.98-19.58-35.79-41.4l16.73-114.4c2.6-17.77,17.83-30.94,35.79-30.94h112.67c18,0,33.26,13.24,35.81,31.05l16.34,114.4c3.11,21.79-13.8,41.28-35.81,41.28Z"/>
      <path class="cls-2" d="M1013.19,227.98h-145.75c-22.06,0-38.98-19.58-35.79-41.4l16.73-114.4c2.6-17.77,17.83-30.94,35.79-30.94h112.67c18,0,33.26,13.24,35.81,31.05l16.34,114.4c3.11,21.79-13.8,41.28-35.81,41.28Z"/>
      <path class="cls-2" d="M1210.75,227.98h-145.75c-22.06,0-38.98-19.58-35.79-41.4l16.73-114.4c2.6-17.77,17.83-30.94,35.79-30.94h112.67c18,0,33.26,13.24,35.81,31.05l16.34,114.4c3.11,21.79-13.8,41.28-35.81,41.28Z"/>
    </g>
  </g>
  <path class="cls-1" d="M191.86,299.19H15.08c-26.76,0-47.28-23.74-43.41-50.22L-8.03,110.22c3.15-21.55,21.63-37.52,43.41-37.52H172.04c21.83,0,40.34,16.05,43.43,37.67l19.82,138.76c3.78,26.43-16.73,50.07-43.43,50.07Z"/>
  <path class="cls-1" d="M436.41,299.19h-176.78c-26.76,0-47.28-23.74-43.41-50.22l20.29-138.76c3.15-21.55,21.63-37.52,43.41-37.52h136.66c21.83,0,40.34,16.05,43.43,37.67l19.82,138.76c3.78,26.43-16.73,50.07-43.43,50.07Z"/>
  <path class="cls-1" d="M680.96,299.19h-176.78c-26.76,0-47.28-23.74-43.41-50.22l20.29-138.76c3.15-21.55,21.63-37.52,43.41-37.52h136.66c21.83,0,40.34,16.05,43.43,37.67l19.82,138.76c3.78,26.43-16.73,50.07-43.43,50.07Z"/>
  <path class="cls-1" d="M925.51,299.19h-176.78c-26.76,0-47.28-23.74-43.41-50.22l20.29-138.76c3.15-21.55,21.63-37.52,43.41-37.52h136.66c21.83,0,40.34,16.05,43.43,37.67l19.82,138.76c3.78,26.43-16.73,50.07-43.43,50.07Z"/>
  <path class="cls-1" d="M1170.06,299.19h-176.78c-26.76,0-47.28-23.74-43.41-50.22l20.29-138.76c3.15-21.55,21.63-37.52,43.41-37.52h136.66c21.83,0,40.34,16.05,43.43,37.67l19.82,138.76c3.78,26.43-16.73,50.07-43.43,50.07Z"/>
  <path class="cls-1" d="M1414.61,299.19h-176.78c-26.76,0-47.28-23.74-43.41-50.22l20.29-138.76c3.15-21.55,21.63-37.52,43.41-37.52h136.66c21.83,0,40.34,16.05,43.43,37.67l19.82,138.76c3.78,26.43-16.73,50.07-43.43,50.07Z"/>
</svg>